<?xml version="1.0" standalone="no"?>
<!DOCTYPE svg PUBLIC "-//W3C//DTD SVG 20010904//EN"
 "http://www.w3.org/TR/2001/REC-SVG-20010904/DTD/svg10.dtd">
<svg version="1.0" xmlns="http://www.w3.org/2000/svg"
 width="640.000000pt" height="640.000000pt" viewBox="0 0 640.000000 640.000000"
 preserveAspectRatio="xMidYMid meet">

<g transform="translate(0.000000,640.000000) scale(0.100000,-0.100000)"
fill="#000000" stroke="none">
<path d="M0 3200 l0 -3200 3200 0 3200 0 0 3200 0 3200 -3200 0 -3200 0 0
-3200z m3278 2044 c46 -19 98 -68 123 -116 10 -21 24 -72 30 -115 14 -100 36
-149 89 -196 52 -47 87 -63 165 -71 101 -12 149 -32 198 -85 49 -52 61 -81 77
-189 13 -88 36 -138 86 -181 51 -45 107 -67 185 -73 151 -12 248 -113 248
-258 1 -133 -97 -236 -239 -255 -81 -10 -149 -32 -184 -59 -46 -34 -82 -109
-100 -205 -21 -112 -45 -161 -97 -203 -55 -44 -85 -55 -177 -68 -87 -12 -138
-36 -182 -86 -43 -49 -57 -86 -68 -176 -16 -127 -68 -196 -179 -238 -64 -24
-108 -22 -178 9 -171 76 -209 290 -74 421 42 40 118 70 183 70 136 2 230 98
247 253 20 170 109 257 284 274 93 9 168 55 213 132 24 40 27 57 27 131 0 79
-2 89 -33 137 -52 81 -112 114 -241 133 -144 21 -220 100 -241 250 -13 92 -29
129 -81 185 -52 56 -104 81 -189 91 -81 8 -116 22 -165 65 -136 120 -99 352
69 425 43 18 158 18 204 -2z m-511 -539 c82 -41 126 -112 136 -221 14 -157 99
-242 263 -265 118 -16 178 -52 224 -132 57 -99 33 -251 -51 -321 -45 -38 -82
-53 -165 -66 -103 -15 -147 -35 -197 -89 -48 -52 -64 -91 -77 -197 -10 -80
-33 -127 -84 -170 -163 -139 -416 -23 -416 192 0 140 91 234 244 254 130 16
194 56 242 152 34 67 34 169 -1 237 -46 92 -114 133 -250 151 -79 10 -106 22
-154 65 -116 105 -108 298 16 390 83 60 173 67 270 20z m-565 -505 c47 -13
116 -70 146 -121 29 -48 40 -140 22 -195 -19 -59 -76 -123 -134 -150 -80 -37
-192 -30 -249 15 -69 55 -96 100 -107 183 -10 69 6 125 54 184 28 36 88 78
122 87 35 9 108 7 146 -3z m762 -1919 c71 -44 115 -123 116 -207 0 -41 -5 -55
-24 -73 -22 -21 -28 -22 -59 -12 -37 13 -57 47 -57 101 0 34 -40 76 -81 84
-36 7 -83 -14 -100 -45 -11 -22 -10 -25 141 -179 167 -170 180 -187 180 -226
0 -78 -59 -160 -145 -200 -112 -53 -242 -6 -299 108 -36 73 -37 158 -1 186 49
39 99 6 108 -70 11 -86 68 -124 141 -94 24 10 37 23 42 41 6 24 -9 41 -147
180 -84 85 -157 162 -162 171 -15 27 -1 121 24 156 30 43 68 77 99 90 74 29
165 25 224 -11z m839 7 c81 -41 127 -114 127 -204 0 -68 -18 -94 -65 -94 -41
0 -61 23 -69 82 -12 81 -65 117 -136 94 -61 -19 -70 -53 -70 -254 0 -202 8
-234 65 -258 30 -12 44 -13 71 -4 42 14 61 41 69 100 8 56 29 80 70 80 52 0
68 -27 63 -109 -3 -59 -9 -77 -34 -112 -17 -24 -55 -56 -84 -73 -124 -70 -282
-16 -334 113 -13 34 -16 80 -16 264 0 198 3 227 20 265 55 120 202 171 323
110z m-2914 8 c9 -8 57 -123 106 -255 50 -132 95 -239 100 -238 6 2 51 110
100 239 50 130 96 243 104 252 19 22 74 20 95 -3 19 -20 19 -40 17 -518 -1
-209 -2 -224 -21 -243 -25 -25 -61 -26 -90 -2 -21 17 -22 25 -21 142 1 133 -9
177 -29 125 -103 -278 -117 -301 -177 -279 -31 11 -33 14 -78 134 -54 141 -67
170 -76 164 -5 -3 -9 -63 -9 -134 0 -120 -2 -131 -22 -150 -27 -25 -58 -26
-86 -2 -21 19 -22 24 -22 382 -1 328 1 364 16 381 20 22 71 25 93 5z m915 -8
c14 -22 75 -208 179 -546 l50 -164 -20 -26 -20 -27 -236 -3 c-226 -2 -238 -1
-257 18 -24 24 -25 53 -6 112 7 24 32 102 54 173 118 373 144 450 159 467 24
26 79 24 97 -4z m400 3 c14 -15 17 -40 17 -142 0 -68 4 -153 7 -189 l7 -65 99
190 c54 105 106 198 114 208 19 22 70 22 94 0 32 -29 21 -70 -57 -219 -41 -79
-75 -151 -75 -161 0 -10 34 -83 75 -163 88 -170 93 -202 40 -227 -54 -26 -72
-11 -139 117 -32 61 -62 108 -66 103 -5 -4 -31 -54 -60 -111 -54 -108 -76
-130 -124 -118 -14 3 -30 15 -36 26 -7 14 -11 139 -10 377 0 316 2 359 17 375
21 24 75 23 97 -1z m1922 11 c30 -20 34 -55 34 -326 l0 -276 26 -23 c38 -33
73 -39 114 -19 58 28 60 39 60 338 0 258 1 271 20 292 29 31 73 29 99 -4 20
-26 21 -39 21 -294 0 -296 -7 -343 -61 -404 -85 -98 -249 -106 -343 -18 -16
15 -39 50 -52 77 -23 49 -24 56 -24 336 0 273 1 286 20 307 20 22 64 29 86 14z
m788 -6 c70 -21 120 -60 151 -118 24 -44 27 -58 22 -114 -3 -44 -13 -77 -31
-109 -27 -45 -27 -45 -8 -73 83 -118 41 -270 -93 -341 -35 -18 -57 -21 -172
-21 -188 0 -173 -33 -173 387 0 353 4 385 47 396 42 11 213 6 257 -7z m720 -7
c39 -30 34 -69 -17 -148 -24 -36 -58 -90 -77 -119 l-33 -53 37 -31 c140 -115
120 -318 -38 -401 -53 -27 -155 -30 -208 -4 -104 50 -175 210 -118 267 20 20
65 26 86 12 18 -11 34 -49 34 -77 0 -37 50 -85 89 -85 62 0 111 44 111 100 0
49 -51 100 -99 100 -31 0 -71 39 -71 68 0 16 27 70 65 130 36 57 65 108 65
113 0 5 -50 9 -115 9 -102 0 -117 2 -135 20 -20 20 -26 65 -12 86 19 28 53 33
228 34 169 0 183 -1 208 -21z"/>
<path d="M2797 2289 c-48 -11 -101 -47 -133 -90 -30 -41 -30 -49 1 -49 14 0
34 -5 45 -12 16 -10 22 -8 40 15 49 62 161 51 198 -20 7 -12 12 -38 12 -57 0
-37 28 -76 53 -76 71 2 60 156 -17 232 -51 50 -130 73 -199 57z"/>
<path d="M2648 2118 c-25 -21 -28 -46 -9 -70 16 -19 23 -21 47 -13 22 8 30 18
32 40 5 44 -36 70 -70 43z"/>
<path d="M2740 2061 c0 -4 -12 -20 -27 -35 l-26 -26 89 -93 c147 -153 174
-174 174 -143 0 8 12 24 27 36 l27 21 -124 124 c-118 118 -140 137 -140 116z"/>
<path d="M2645 1806 c-32 -23 -25 -114 11 -173 43 -70 110 -108 188 -107 70 0
106 16 159 71 42 42 48 73 16 73 -11 0 -29 5 -41 11 -17 9 -25 6 -49 -19 -80
-82 -209 -23 -209 96 0 36 -4 44 -26 52 -31 12 -27 13 -49 -4z"/>
<path d="M2976 1771 c-25 -28 -17 -64 17 -75 34 -12 61 1 65 32 8 54 -46 82
-82 43z"/>
<path d="M3674 2289 c-28 -10 -36 -42 -17 -68 32 -46 104 -6 81 44 -12 27 -35
35 -64 24z"/>
<path d="M3563 2250 c-24 -18 -52 -51 -65 -78 -22 -45 -23 -57 -23 -267 0
-249 0 -251 79 -323 59 -55 72 -54 79 6 5 38 2 50 -12 62 -38 32 -41 55 -41
260 0 211 3 227 46 265 17 15 21 24 14 35 -5 8 -10 27 -10 43 0 35 -16 34 -67
-3z"/>
<path d="M3760 2247 c0 -18 -5 -38 -10 -43 -7 -7 -1 -19 20 -37 29 -26 33 -36
45 -108 7 -45 41 -65 74 -43 17 12 21 25 21 70 0 78 -39 147 -102 180 -40 21
-48 18 -48 -19z"/>
<path d="M3838 1809 c-10 -5 -20 -26 -23 -47 -12 -73 -16 -83 -41 -105 -19
-17 -24 -27 -18 -47 4 -14 6 -35 6 -47 -2 -29 16 -29 59 0 74 50 121 195 78
238 -21 21 -36 23 -61 8z"/>
<path d="M3656 1601 c-22 -24 -13 -59 17 -70 47 -18 85 19 65 64 -14 31 -57
34 -82 6z"/>
<path d="M812 2278 c-18 -18 -15 -51 12 -120 13 -35 30 -79 37 -100 8 -20 19
-35 24 -35 16 3 15 218 -2 245 -15 24 -52 29 -71 10z"/>
<path d="M1300 2265 c-12 -31 -8 -245 4 -246 11 0 86 195 86 225 0 30 -18 46
-52 46 -21 0 -31 -6 -38 -25z"/>
<path d="M914 2145 c-4 -8 -4 -66 -2 -127 4 -108 7 -119 58 -251 29 -76 58
-136 63 -134 6 2 19 29 30 60 l19 57 -27 78 c-14 42 -30 86 -35 97 -5 11 -28
68 -51 128 -22 59 -43 107 -45 107 -3 0 -7 -7 -10 -15z"/>
<path d="M1250 2135 c-7 -16 -23 -59 -36 -95 -13 -36 -41 -112 -64 -170 -22
-58 -40 -112 -40 -121 0 -22 41 -119 50 -119 4 0 31 62 61 138 51 131 53 142
57 249 4 123 -7 171 -28 118z"/>
<path d="M1339 2033 l-44 -108 -3 -173 c-3 -145 -1 -177 13 -198 17 -27 56
-32 74 -10 11 14 20 580 9 591 -3 3 -25 -43 -49 -102z"/>
<path d="M800 1841 c0 -311 1 -317 52 -309 39 5 47 40 46 208 0 144 -2 161
-30 245 -31 90 -54 145 -63 145 -3 0 -5 -130 -5 -289z"/>
<path d="M1070 1655 c-24 -56 -26 -98 -4 -115 22 -19 68 -1 72 28 4 25 -25
119 -39 128 -5 3 -18 -16 -29 -41z"/>
<path d="M1711 2272 c-10 -19 2 -81 29 -147 l12 -30 14 33 c28 64 39 122 28
140 -16 25 -70 28 -83 4z"/>
<path d="M1645 2067 c-20 -67 -57 -185 -82 -261 -24 -77 -40 -143 -36 -147 4
-4 27 -5 49 -2 50 6 45 -3 114 218 l52 170 -21 67 c-12 37 -26 70 -30 72 -4 3
-25 -50 -46 -117z"/>
<path d="M1806 2179 c-45 -127 -45 -125 -2 -264 19 -60 44 -143 56 -182 18
-61 25 -73 43 -73 12 0 31 -3 42 -5 45 -11 45 6 4 130 -21 66 -58 181 -80 255
-43 138 -55 164 -63 139z"/>
<path d="M1740 1966 c-32 -86 -93 -297 -87 -303 8 -7 195 -8 203 -1 6 6 -85
310 -97 322 -5 5 -13 -2 -19 -18z"/>
<path d="M1523 1628 c-15 -7 -23 -20 -23 -38 0 -76 93 -63 102 15 3 27 0 30
-27 32 -16 1 -40 -3 -52 -9z"/>
<path d="M1643 1632 c-7 -4 -19 -27 -27 -50 l-15 -42 150 0 150 0 -6 23 c-22
73 -21 72 -135 75 -58 1 -110 -2 -117 -6z"/>
<path d="M1906 1631 c-3 -5 -3 -23 0 -40 10 -48 57 -67 88 -35 21 21 20 40 -4
64 -20 20 -74 27 -84 11z"/>
<path d="M2113 2278 c-9 -15 -11 -608 -2 -613 3 -3 27 36 52 84 l47 88 0 210
c0 191 -2 211 -18 226 -22 20 -68 22 -79 5z"/>
<path d="M2458 2273 c-9 -10 -46 -78 -82 -151 l-66 -132 27 -11 c16 -6 35 -17
43 -24 14 -12 24 2 88 125 72 138 83 175 60 198 -17 17 -53 15 -70 -5z"/>
<path d="M2291 1946 c-7 -8 -13 -23 -13 -33 -2 -20 29 -90 43 -99 4 -2 20 18
34 46 19 38 23 55 16 69 -18 32 -60 41 -80 17z"/>
<path d="M2370 1848 c-36 -59 -35 -68 28 -189 45 -87 65 -116 85 -123 32 -12
57 6 57 40 0 23 -134 304 -145 304 -3 0 -14 -15 -25 -32z"/>
<path d="M2232 1838 c-11 -34 -14 -150 -6 -181 8 -26 21 -13 55 59 l31 64 -21
45 c-25 53 -46 57 -59 13z"/>
<path d="M2150 1681 c-41 -83 -49 -118 -28 -139 19 -19 55 -14 72 10 18 26 23
192 6 203 -5 3 -28 -30 -50 -74z"/>
<path d="M4050 2270 c-8 -14 -10 -114 -8 -310 l3 -288 30 -44 c29 -40 87 -88
106 -88 5 0 9 12 9 26 0 14 4 33 10 43 7 14 4 23 -11 37 -47 42 -49 58 -49
339 0 165 -4 274 -10 286 -15 26 -66 26 -80 -1z"/>
<path d="M4392 2278 c-9 -9 -12 -85 -12 -279 0 -153 -4 -279 -10 -294 -5 -14
-21 -36 -35 -49 -22 -21 -24 -27 -14 -55 6 -17 8 -38 5 -46 -18 -47 77 13 119
75 l30 45 3 293 c2 215 0 297 -9 308 -14 17 -61 18 -77 2z"/>
<path d="M4231 1614 c-29 -21 -27 -60 4 -80 23 -15 27 -15 50 0 15 10 25 26
25 40 0 40 -46 63 -79 40z"/>
<path d="M4658 2279 c-21 -12 -24 -59 -6 -77 7 -7 27 -12 45 -12 31 0 33 2 33
34 0 53 -33 78 -72 55z"/>
<path d="M4747 2283 c-3 -5 -2 -26 2 -48 l6 -40 71 -5 c43 -3 80 -12 97 -23
49 -32 61 -99 27 -155 -11 -18 -20 -35 -20 -37 0 -5 76 -45 85 -45 3 0 18 25
32 56 73 160 -40 304 -238 304 -32 0 -60 -3 -62 -7z"/>
<path d="M4635 2162 c-7 -18 -6 -141 1 -168 5 -17 11 -19 47 -15 l42 6 0 90 0
90 -42 6 c-31 4 -44 2 -48 -9z"/>
<path d="M4755 2158 c-3 -8 -5 -50 -3 -94 l3 -79 57 -3 c94 -5 142 32 136 105
-4 52 -41 76 -123 81 -50 3 -66 1 -70 -10z"/>
<path d="M4652 1948 c-17 -17 -15 -63 2 -77 8 -7 27 -11 43 -9 26 3 28 7 31
51 l3 47 -33 0 c-19 0 -39 -5 -46 -12z"/>
<path d="M4754 1946 c-3 -8 -4 -29 -2 -48 l3 -33 80 1 c56 0 90 5 113 18 40
21 38 35 -9 58 -44 23 -177 25 -185 4z"/>
<path d="M4956 1869 l-38 -21 22 -23 c13 -14 24 -41 27 -68 5 -39 2 -48 -25
-78 -29 -32 -35 -34 -109 -39 l-78 -5 -5 -47 -6 -48 81 0 c120 1 174 31 224
125 28 53 27 120 -2 176 -13 24 -30 45 -38 46 -8 1 -31 -7 -53 -18z"/>
<path d="M4637 1844 c-10 -10 -9 -182 1 -188 4 -2 27 -2 50 1 l42 6 0 88 c0
86 -1 89 -22 89 -13 0 -32 3 -43 6 -11 3 -24 2 -28 -2z"/>
<path d="M4750 1750 l0 -90 75 0 c69 0 78 2 100 26 40 43 31 115 -16 139 -16
9 -56 15 -94 15 l-65 0 0 -90z"/>
<path d="M4658 1629 c-12 -6 -18 -22 -18 -44 0 -29 4 -36 27 -41 39 -10 58 7
58 52 0 34 -3 39 -25 41 -14 2 -33 -2 -42 -8z"/>
<path d="M5234 2280 c-29 -11 -36 -45 -16 -70 16 -19 26 -21 142 -18 l124 3
23 34 c40 60 38 61 -114 60 -76 0 -148 -4 -159 -9z"/>
<path d="M5550 2260 c-15 -16 -30 -39 -33 -50 -5 -18 0 -20 47 -20 29 0 57 5
64 12 19 19 15 66 -7 78 -30 15 -41 13 -71 -20z"/>
<path d="M5453 2108 c-47 -74 -66 -109 -61 -113 2 -1 26 -6 53 -9 l50 -7 53
89 c28 48 52 91 52 95 0 4 -24 7 -53 7 l-54 0 -40 -62z"/>
<path d="M5369 1958 c-25 -20 -29 -43 -13 -67 18 -26 55 -27 76 -3 21 24 41
63 35 69 -13 12 -83 14 -98 1z"/>
<path d="M5471 1906 c-12 -18 -21 -36 -21 -39 0 -3 13 -19 29 -35 53 -53 53
-112 0 -165 -28 -27 -29 -32 -18 -58 6 -16 9 -35 5 -44 -9 -25 27 -18 67 13
70 52 99 147 73 236 -17 57 -72 126 -101 126 -7 0 -23 -15 -34 -34z"/>
<path d="M5192 1788 c-33 -33 -4 -136 53 -194 53 -52 85 -58 85 -16 0 15 5 33
11 39 9 9 2 21 -25 49 -26 27 -36 46 -36 70 0 18 -7 40 -16 48 -18 19 -55 21
-72 4z"/>
<path d="M5366 1614 c-31 -30 -9 -84 34 -84 11 0 27 11 36 25 15 23 15 27 0
50 -19 29 -47 32 -70 9z"/>
</g>
</svg>
