<svg height="512pt" viewBox="0 0 512 512" width="512pt" xmlns="http://www.w3.org/2000/svg"><path d="m452 81.507812v-51.507812h45c8.285156 0 15-6.714844 15-15s-6.714844-15-15-15h-482c-8.285156 0-15 6.714844-15 15s6.714844 15 15 15h45v51.507812c-34.191406 6.96875-60 37.273438-60 73.492188 0 .710938.0507812 1.417969.152344 2.121094l10 70c1.054687 7.390625 7.382812 12.878906 14.847656 12.878906h100c7.464844 0 13.792969-5.488281 14.847656-12.878906l10-70c.101563-.703125.152344-1.410156.152344-2.121094 0-36.21875-25.808594-66.523438-60-73.492188v-51.507812h151v51.507812c-34.191406 6.96875-60 37.273438-60 73.492188 0 .710938.050781 1.417969.152344 2.121094l10 70c1.054687 7.390625 7.382812 12.878906 14.847656 12.878906h100c7.464844 0 13.792969-5.488281 14.847656-12.878906l10-70c.101563-.703125.152344-1.410156.152344-2.121094 0-36.21875-25.808594-66.523438-60-73.492188v-51.507812h151v51.507812c-34.191406 6.96875-60 37.273438-60 73.492188 0 .710938.050781 1.417969.152344 2.121094l10 70c1.054687 7.390625 7.382812 12.878906 14.847656 12.878906h100c7.464844 0 13.792969-5.488281 14.847656-12.878906l10-70c.101563-.703125.152344-1.410156.152344-2.121094 0-36.21875-25.808594-66.523438-60-73.492188zm-332.011719 72.5-7.996093 55.992188h-73.984376l-7.996093-55.992188c.527343-24.355468 20.507812-44.007812 44.988281-44.007812s44.460938 19.652344 44.988281 44.007812zm181 0-7.996093 55.992188h-73.980469l-8-55.992188c.527343-24.355468 20.507812-44.007812 44.988281-44.007812s44.460938 19.652344 44.988281 44.007812zm173.003907 55.992188h-73.980469l-8-55.992188c.527343-24.355468 20.507812-44.007812 44.988281-44.007812s44.460938 19.652344 44.988281 44.007812zm0 0"/><path d="m497 302c8.285156 0 15-6.714844 15-15s-6.714844-15-15-15h-482c-8.285156 0-15 6.714844-15 15s6.714844 15 15 15h45v51.507812c-34.191406 6.96875-60 37.273438-60 73.492188 0 .710938.0507812 1.417969.152344 2.121094l10 70c1.054687 7.390625 7.382812 12.878906 14.847656 12.878906h100c7.464844 0 13.792969-5.488281 14.847656-12.878906l10-70c.101563-.703125.152344-1.410156.152344-2.121094 0-36.21875-25.808594-66.523438-60-73.492188v-51.507812h151v51.507812c-34.191406 6.96875-60 37.273438-60 73.492188 0 .710938.050781 1.417969.152344 2.121094l10 70c1.054687 7.390625 7.382812 12.878906 14.847656 12.878906h100c7.464844 0 13.792969-5.488281 14.847656-12.878906l10-70c.101563-.703125.152344-1.410156.152344-2.121094 0-36.21875-25.808594-66.523438-60-73.492188v-51.507812h151v51.507812c-34.191406 6.96875-60 37.273438-60 73.492188 0 .710938.050781 1.417969.152344 2.121094l10 70c1.054687 7.390625 7.382812 12.878906 14.847656 12.878906h100c7.464844 0 13.792969-5.488281 14.847656-12.878906l10-70c.101563-.703125.152344-1.410156.152344-2.121094 0-36.21875-25.808594-66.523438-60-73.492188v-51.507812zm-377.011719 124.007812-7.996093 55.992188h-73.984376l-7.996093-55.992188c.527343-24.355468 20.507812-44.007812 44.988281-44.007812s44.460938 19.652344 44.988281 44.007812zm181 0-7.996093 55.992188h-73.980469l-8-55.992188c.527343-24.355468 20.507812-44.007812 44.988281-44.007812s44.460938 19.652344 44.988281 44.007812zm181 0-7.996093 55.992188h-73.980469l-8-55.992188c.527343-24.355468 20.507812-44.007812 44.988281-44.007812s44.460938 19.652344 44.988281 44.007812zm0 0"/></svg>